<svg width="64" height="64" viewBox="0 0 64 64" fill="none" xmlns="http://www.w3.org/2000/svg">
<path d="M5.12737 23.6088C6.56353 36.2416 20.5201 48.0935 29.3296 54.2124C30.9388 55.3301 33.0612 55.3301 34.6704 54.2124C43.4799 48.0935 57.4365 36.2416 58.8726 23.6088C60.8632 6.09946 38.967 3.97215 32 13.9775C25.033 3.97215 3.13681 6.09946 5.12737 23.6088Z" fill="#1A73C8"/>
<path d="M28.7036 21.0891C28.7036 19.6625 29.8601 18.506 31.2867 18.506H33.8698C35.2965 18.506 36.453 19.6625 36.453 21.0891V41.7542C36.453 43.1808 35.2965 44.3373 33.8698 44.3373H31.2867C29.8601 44.3373 28.7036 43.1808 28.7036 41.7542V21.0891Z" fill="white"/>
<path d="M19.6626 30.1301C19.6626 28.7035 20.8191 27.5469 22.2457 27.5469H42.9108C44.3374 27.5469 45.4939 28.7035 45.4939 30.1301V32.7132C45.4939 34.1398 44.3374 35.2963 42.9108 35.2963H22.2457C20.8191 35.2963 19.6626 34.1398 19.6626 32.7132V30.1301Z" fill="white"/>
</svg>
